<?xml version="1.0" standalone="no"?>
<!DOCTYPE svg PUBLIC "-//W3C//DTD SVG 20010904//EN"
 "http://www.w3.org/TR/2001/REC-SVG-20010904/DTD/svg10.dtd">
<svg version="1.0" xmlns="http://www.w3.org/2000/svg"
 width="151.000000pt" height="151.000000pt" viewBox="0 0 151.000000 151.000000"
 preserveAspectRatio="xMidYMid meet">
<g transform="translate(0.000000,151.000000) scale(0.100000,-0.100000)"
fill="#000000" stroke="none">
<path d="M610 1450 c-328 -67 -562 -347 -564 -675 -1 -114 6 -170 33 -246 36
-107 83 -184 162 -266 32 -33 45 -41 57 -34 15 9 17 51 17 455 l0 445 24 25
c43 46 70 37 243 -79 86 -58 162 -105 169 -105 8 0 59 32 115 70 65 45 108 68
118 64 27 -10 66 23 66 56 0 61 -91 76 -105 17 -8 -30 -179 -151 -202 -143 -8
4 -76 47 -150 97 -75 50 -150 95 -168 100 -44 13 -108 -13 -138 -55 -22 -31
-22 -36 -27 -445 l-5 -414 -41 59 c-129 188 -157 427 -72 628 104 246 332 400
603 410 63 3 139 -15 152 -34 14 -20 57 -27 80 -12 24 15 26 59 4 81 -23 23
-56 28 -66 10 -4 -6 -19 -7 -37 -3 -63 13 -186 11 -268 -6z"/>
<path d="M1193 1278 c-4 -7 -8 -209 -8 -449 0 -398 -2 -438 -18 -462 -10 -15
-21 -27 -25 -28 -4 0 -17 -2 -30 -5 -26 -5 -61 11 -79 35 -9 12 -12 88 -13
279 0 230 -2 263 -16 269 -10 3 -54 -21 -120 -66 -72 -49 -113 -71 -134 -71
-21 0 -62 22 -134 71 -62 43 -111 69 -119 66 -13 -5 -15 -45 -15 -266 -1 -221
-3 -264 -16 -283 -21 -30 -20 -54 4 -78 20 -20 51 -20 76 1 18 15 18 63 0 78
-11 9 -14 58 -14 241 0 127 2 230 5 230 3 0 39 -24 82 -54 110 -78 148 -78
261 -1 44 30 82 55 84 55 1 0 2 -93 2 -207 -1 -220 4 -270 32 -309 38 -52 128
-62 186 -21 25 18 58 74 55 94 -1 5 -1 186 0 403 l1 395 25 -30 c57 -70 117
-206 133 -305 11 -65 5 -204 -12 -269 -66 -255 -292 -457 -543 -486 -32 -4
-67 -8 -78 -10 -11 -1 -49 1 -84 6 -46 7 -68 15 -78 29 -18 25 -64 26 -87 1
-38 -42 16 -109 67 -83 15 8 38 9 76 3 90 -14 218 -2 314 30 107 36 221 108
289 184 69 77 81 95 118 170 53 107 71 179 75 305 4 122 -15 212 -69 325 -57
121 -171 247 -193 213z"/>
</g>
</svg>
